<svg width="175" height="54" viewBox="0 0 175 54" fill="none" xmlns="http://www.w3.org/2000/svg">
<path d="M0.608398 2.66919H7.92851V16.731C9.13733 15.7169 10.5476 14.9394 12.1258 14.331C13.704 13.7226 15.3493 13.4183 17.0618 13.4183C20.7891 13.4183 23.5761 14.3648 25.4229 16.2915C27.2697 18.2183 28.1763 21.3957 28.1763 25.8914V43.401H20.8226V27.6829C20.8226 24.8773 20.2854 22.9168 19.2445 21.7675C18.2035 20.6182 16.6589 20.0436 14.6778 20.0436C13.3346 20.0436 12.0922 20.314 10.9506 20.8887C9.8089 21.4633 8.80155 22.207 7.96208 23.0858V43.401H0.608398V2.66919Z" fill="white"/>
<path d="M38.1196 42.1154C35.965 40.8638 34.3153 39.0711 33.1706 36.771C32.0259 34.4708 31.4199 31.731 31.4199 28.619C31.4199 25.5409 31.9923 22.8349 33.1706 20.5348C34.3153 18.2346 35.965 16.4419 38.0523 15.1904C40.1397 13.9388 42.53 13.2961 45.257 13.2961C46.9067 13.2961 48.5227 13.5667 50.1387 14.0741C51.7548 14.5815 53.1014 15.3933 54.2461 16.5096V13.9727H61.5182V43.2992H54.3471V40.4579C53.3034 41.7433 52.0241 42.6566 50.4418 43.1639C48.8594 43.6713 47.2434 43.9419 45.56 43.9419C42.7657 44.0096 40.2743 43.3669 38.1196 42.1154ZM51.3508 36.365C52.6301 35.7224 53.6401 34.7414 54.3471 33.4561V23.7482C53.6401 22.5643 52.5964 21.651 51.2498 20.9745C49.9031 20.298 48.4891 19.9936 47.0414 19.9936C44.651 19.9936 42.732 20.7715 41.2507 22.2937C39.803 23.8158 39.0623 25.9468 39.0623 28.6529C39.0623 31.3251 39.803 33.4561 41.2507 35.012C42.6984 36.568 44.6847 37.346 47.1761 37.346C48.6574 37.346 50.0714 37.0077 51.3508 36.365Z" fill="#D9FFFF"/>
<path d="M66.9644 9.03889C66.0893 8.15973 65.6182 7.07769 65.6182 5.82658C65.6182 4.57547 66.0557 3.49343 66.9644 2.61427C67.8394 1.73511 68.9164 1.26172 70.1616 1.26172C71.4069 1.26172 72.4839 1.7013 73.3589 2.61427C74.234 3.49343 74.6715 4.57547 74.6715 5.82658C74.6715 7.07769 74.234 8.15973 73.3589 9.03889C72.4839 9.91805 71.4406 10.3914 70.1616 10.3914C68.9501 10.3914 67.8731 9.95187 66.9644 9.03889ZM66.3922 13.9757H73.8637V43.2923H66.3922V13.9757Z" fill="#D9FFFF"/>
<path d="M78.7568 13.9387H85.8589V17.7601C86.936 16.3735 88.2151 15.2576 89.7634 14.4798C91.3117 13.702 93.0283 13.2961 94.9469 13.2961C95.822 13.2961 96.5289 13.3976 96.9664 13.5667V21.5814C95.6201 21.2095 94.442 21.0404 93.4322 21.0404C91.2444 21.0404 89.4941 21.7505 88.1477 23.2047C86.8014 24.625 86.1282 26.7217 86.1282 29.4271V43.2923H78.7568V13.9387Z" fill="white"/>
<path d="M100.21 13.9799H107.56V16.544C108.717 15.4158 110.112 14.5953 111.711 14.0825C113.345 13.5696 114.978 13.2961 116.645 13.2961C119.368 13.2961 121.818 13.9457 123.927 15.2107C126.037 16.4756 127.67 18.2876 128.827 20.6123C129.984 22.9371 130.563 25.6721 130.563 28.7832C130.563 31.9285 129.984 34.6636 128.793 37.0225C127.636 39.3473 125.969 41.1593 123.825 42.4242C121.681 43.6892 119.197 44.3387 116.339 44.3387C114.638 44.3387 113.038 44.0652 111.473 43.5524C109.908 43.0396 108.615 42.1165 107.594 40.8174V53.0691H100.244V13.9799H100.21ZM120.661 35.2106C122.124 33.6379 122.872 31.4841 122.872 28.7832C122.872 26.0482 122.158 23.8944 120.695 22.3559C119.231 20.8175 117.292 20.0312 114.876 20.0312C113.413 20.0312 111.984 20.373 110.622 21.0226C109.261 21.7064 108.206 22.6294 107.492 23.826V33.6379C108.241 34.9371 109.261 35.9285 110.554 36.5781C111.847 37.2276 113.243 37.5695 114.74 37.5695C117.19 37.5695 119.163 36.7832 120.661 35.2106Z" fill="white"/>
<path d="M134.221 13.9756H141.692V43.2922H134.221V13.9756Z" fill="white"/>
<path d="M133.43 5.49602C133.43 6.74713 133.901 7.82917 134.776 8.70833C135.685 9.6213 136.762 10.0609 137.973 10.0609C139.252 10.0609 140.295 9.58749 141.17 8.70833C142.045 7.82917 142.483 6.74713 142.483 5.49602C142.483 4.2449 142.045 3.16286 141.17 2.2837C140.295 1.37073 139.218 0.931152 137.973 0.931152C136.728 0.931152 135.651 1.40455 134.776 2.2837C133.867 3.16286 133.43 4.2449 133.43 5.49602Z" fill="white"/>
<path d="M146.557 13.9387H153.659V16.6103C154.904 15.5957 156.351 14.8179 157.967 14.2092C159.583 13.6005 161.266 13.2961 163.016 13.2961C166.752 13.2961 169.546 14.243 171.397 16.1706C173.248 18.0982 174.157 21.2771 174.157 25.7748V43.2923H166.819V27.601C166.819 24.7941 166.281 22.8327 165.237 21.6829C164.194 20.5331 162.646 19.9582 160.66 19.9582C159.313 19.9582 158.068 20.2287 156.924 20.8036C155.779 21.3785 154.769 22.1225 153.928 23.0018V43.2585H146.557V13.9387Z" fill="white"/>
</svg>
