<svg width="448" height="136" viewBox="0 0 448 136" fill="none" xmlns="http://www.w3.org/2000/svg">
<path d="M0 5.41992H18.8962V41.5872C22.0167 38.9789 25.6573 36.9793 29.7312 35.4144C33.8052 33.8495 38.0525 33.067 42.4732 33.067C52.0946 33.067 59.2891 35.5013 64.0565 40.4569C68.8238 45.4125 71.1642 53.5849 71.1642 65.148V110.183H52.1813V69.7559C52.1813 62.5398 50.7944 57.4973 48.1073 54.5413C45.4203 51.5853 41.433 50.1073 36.3189 50.1073C32.8517 50.1073 29.6445 50.8028 26.6974 52.2808C23.7503 53.7588 21.1499 55.6715 18.9829 57.932V110.183H0V5.41992Z" fill="white"/>
<path d="M96.8309 106.877C91.2688 103.658 87.0102 99.0467 84.0554 93.1307C81.1005 87.2147 79.5361 80.1678 79.5361 72.1638C79.5361 64.2468 81.0136 57.2868 84.0554 51.3709C87.0102 45.4549 91.2688 40.8439 96.6571 37.6249C102.045 34.4059 108.216 32.7529 115.255 32.7529C119.514 32.7529 123.686 33.4489 127.857 34.7539C132.029 36.0589 135.505 38.1469 138.46 41.0179V34.4929H157.232V109.922H138.721V102.614C136.027 105.92 132.724 108.269 128.639 109.574C124.555 110.879 120.383 111.575 116.038 111.575C108.824 111.749 102.393 110.096 96.8309 106.877ZM130.986 92.0867C134.288 90.4337 136.896 87.9107 138.721 84.6047V59.6358C136.896 56.5908 134.201 54.2419 130.725 52.5019C127.249 50.7619 123.599 49.9789 119.862 49.9789C113.691 49.9789 108.737 51.9799 104.913 55.8948C101.176 59.8098 99.2643 65.2908 99.2643 72.2508C99.2643 79.1238 101.176 84.6047 104.913 88.6067C108.65 92.6087 113.778 94.6097 120.209 94.6097C124.033 94.6097 127.683 93.7397 130.986 92.0867Z" fill="#D9FFFF"/>
<path d="M171.294 21.8031C169.035 19.5419 167.818 16.7589 167.818 13.541C167.818 10.3231 168.948 7.54006 171.294 5.27885C173.552 3.01763 176.332 1.80005 179.547 1.80005C182.761 1.80005 185.542 2.93066 187.8 5.27885C190.059 7.54006 191.189 10.3231 191.189 13.541C191.189 16.7589 190.059 19.5419 187.8 21.8031C185.542 24.0643 182.848 25.2819 179.547 25.2819C176.419 25.2819 173.639 24.1513 171.294 21.8031ZM169.817 34.5007H189.104V109.904H169.817V34.5007Z" fill="#D9FFFF"/>
<path d="M201.733 34.4055H220.067V44.2342C222.847 40.6681 226.149 37.7977 230.146 35.7972C234.143 33.7967 238.574 32.7529 243.527 32.7529C245.786 32.7529 247.61 33.0139 248.74 33.4488V54.0629C245.264 53.1061 242.223 52.6713 239.617 52.6713C233.969 52.6713 229.451 54.4978 225.975 58.2379C222.5 61.8911 220.762 67.2838 220.762 74.2422V109.904H201.733V34.4055Z" fill="white"/>
<path d="M257.111 34.5116H276.085V41.1065C279.071 38.2047 282.673 36.0943 286.801 34.7754C291.017 33.4564 295.234 32.7529 299.538 32.7529C306.565 32.7529 312.89 34.4236 318.336 37.6771C323.782 40.9306 327.998 45.591 330.984 51.5704C333.971 57.5498 335.464 64.5843 335.464 72.5861C335.464 80.6759 333.971 87.7104 330.897 93.7777C327.91 99.7571 323.606 104.418 318.072 107.671C312.538 110.925 306.126 112.595 298.747 112.595C294.355 112.595 290.227 111.892 286.186 110.573C282.146 109.254 278.808 106.88 276.173 103.538V135.05H257.199V34.5116H257.111ZM309.903 89.1174C313.68 85.0725 315.613 79.5328 315.613 72.5861C315.613 65.5516 313.768 60.0119 309.991 56.0549C306.214 52.098 301.207 50.0755 294.97 50.0755C291.193 50.0755 287.504 50.9549 283.99 52.6256C280.477 54.3842 277.754 56.7584 275.909 59.836V85.0725C277.841 88.4139 280.477 90.9639 283.815 92.6346C287.152 94.3053 290.754 95.1847 294.619 95.1847C300.943 95.1847 306.038 93.1622 309.903 89.1174Z" fill="white"/>
<path d="M344.908 34.5007H364.195V109.904H344.908V34.5007Z" fill="white"/>
<path d="M342.867 12.6909C342.867 15.9088 344.083 18.6918 346.342 20.953C348.688 23.3012 351.468 24.4318 354.596 24.4318C357.897 24.4318 360.59 23.2142 362.849 20.953C365.108 18.6918 366.238 15.9088 366.238 12.6909C366.238 9.473 365.108 6.68996 362.849 4.42875C360.59 2.08056 357.81 0.949951 354.596 0.949951C351.381 0.949951 348.601 2.16753 346.342 4.42875C343.997 6.68996 342.867 9.473 342.867 12.6909Z" fill="white"/>
<path d="M376.752 34.4055H395.085V41.2769C398.3 38.6675 402.036 36.667 406.207 35.1014C410.378 33.5357 414.722 32.7529 419.24 32.7529C428.885 32.7529 436.097 35.1884 440.875 40.1462C445.654 45.104 448 53.2801 448 64.8484V109.904H429.059V69.5453C429.059 62.326 427.668 57.2812 424.975 54.3239C422.281 51.3666 418.285 49.8879 413.158 49.8879C409.683 49.8879 406.468 50.5837 403.514 52.0624C400.559 53.541 397.953 55.4546 395.78 57.7161V109.817H376.752V34.4055Z" fill="white"/>
</svg>
