<svg width="20" height="20" viewBox="0 0 20 20" fill="none" xmlns="http://www.w3.org/2000/svg">
<g clip-path="url(#clip0_363_900530)">
<g clip-path="url(#clip1_363_900530)">
<path d="M4.44268 3.78748C5.29829 3.02104 6.30325 2.43997 7.39435 2.08081C7.70633 2.47166 8.1024 2.78717 8.55311 3.00387C9.00382 3.22057 9.49758 3.33289 9.99768 3.33248C10.4978 3.33289 10.9915 3.22057 11.4423 3.00387C11.893 2.78717 12.289 2.47166 12.601 2.08081C13.6921 2.43997 14.6971 3.02104 15.5527 3.78748C15.3706 4.25285 15.2957 4.75326 15.3335 5.25155C15.3713 5.74985 15.5208 6.23323 15.771 6.66581C16.0207 7.09922 16.3648 7.47077 16.7779 7.75283C17.191 8.03489 17.6623 8.2202 18.1568 8.29498C18.3906 9.41906 18.3906 10.5792 18.1568 11.7033C17.1902 11.8516 16.2985 12.42 15.771 13.3325C15.5207 13.7652 15.3711 14.2487 15.3333 14.7471C15.2955 15.2456 15.3705 15.7462 15.5527 16.2116C14.697 16.9778 13.692 17.5586 12.601 17.9175C12.2889 17.5268 11.8928 17.2114 11.4421 16.9949C10.9914 16.7783 10.4977 16.6661 9.99768 16.6666C9.49758 16.6662 9.00382 16.7786 8.55311 16.9953C8.1024 17.212 7.70633 17.5275 7.39435 17.9183C6.30332 17.5594 5.29836 16.9786 4.44268 16.2125C4.62489 15.747 4.69988 15.2464 4.66208 14.748C4.62428 14.2495 4.47467 13.766 4.22435 13.3333C3.97459 12.9001 3.63039 12.5287 3.21733 12.2468C2.80428 11.9648 2.33299 11.7797 1.83851 11.705C1.60461 10.5806 1.60461 9.42016 1.83851 8.29581C2.33307 8.22103 2.8044 8.03572 3.21746 7.75366C3.63052 7.4716 3.97468 7.10005 4.22435 6.66664C4.47454 6.23406 4.62408 5.75068 4.66188 5.25239C4.69968 4.75409 4.62476 4.25368 4.44268 3.78831V3.78748ZM11.2477 12.1641C11.5343 12.0012 11.7858 11.7831 11.9878 11.5226C12.1899 11.262 12.3383 10.9641 12.4247 10.6459C12.5111 10.3277 12.5337 9.99557 12.4912 9.66862C12.4487 9.34167 12.3419 9.02635 12.1771 8.74082C12.0122 8.4553 11.7925 8.2052 11.5306 8.00493C11.2687 7.80466 10.9698 7.65817 10.651 7.5739C10.3323 7.48963 10 7.46923 9.67337 7.5139C9.34671 7.55856 9.03211 7.6674 8.74768 7.83414C8.17817 8.16802 7.76383 8.71361 7.59509 9.35185C7.42635 9.99009 7.5169 10.6692 7.84699 11.2409C8.17709 11.8126 8.71991 12.2305 9.35702 12.4035C9.99413 12.5765 10.6738 12.4904 11.2477 12.1641V12.1641Z" fill="#28DAC8"/>
</g>
</g>
<defs>
<clipPath id="clip0_363_900530">
<rect width="20" height="20" fill="white" transform="translate(-0.00195312)"/>
</clipPath>
<clipPath id="clip1_363_900530">
<rect width="20" height="20" fill="white" transform="translate(-0.00195312)"/>
</clipPath>
</defs>
</svg>
