<svg width="48" height="49" viewBox="0 0 48 49" fill="none" xmlns="http://www.w3.org/2000/svg">
<mask id="mask0_363_901669" style="mask-type:alpha" maskUnits="userSpaceOnUse" x="0" y="0" width="48" height="49">
<path d="M24 44.4C12.954 44.4 4 35.446 4 24.4C4 13.354 12.954 4.39999 24 4.39999C35.046 4.39999 44 13.354 44 24.4C44 35.446 35.046 44.4 24 44.4ZM17 28.4V32.4H22V36.4H26V32.4H28C29.3261 32.4 30.5979 31.8732 31.5355 30.9355C32.4732 29.9978 33 28.7261 33 27.4C33 26.0739 32.4732 24.8021 31.5355 23.8645C30.5979 22.9268 29.3261 22.4 28 22.4H20C19.7348 22.4 19.4804 22.2946 19.2929 22.1071C19.1054 21.9196 19 21.6652 19 21.4C19 21.1348 19.1054 20.8804 19.2929 20.6929C19.4804 20.5053 19.7348 20.4 20 20.4H31V16.4H26V12.4H22V16.4H20C18.6739 16.4 17.4021 16.9268 16.4645 17.8645C15.5268 18.8021 15 20.0739 15 21.4C15 22.7261 15.5268 23.9978 16.4645 24.9355C17.4021 25.8732 18.6739 26.4 20 26.4H28C28.2652 26.4 28.5196 26.5053 28.7071 26.6929C28.8946 26.8804 29 27.1348 29 27.4C29 27.6652 28.8946 27.9196 28.7071 28.1071C28.5196 28.2946 28.2652 28.4 28 28.4H17Z" fill="#28DAC8"/>
</mask>
<g mask="url(#mask0_363_901669)">
<rect y="0.399994" width="48" height="48" fill="#2CBCA8"/>
</g>
</svg>
