<svg width="26" height="26" viewBox="0 0 26 26" fill="none" xmlns="http://www.w3.org/2000/svg">
<mask id="mask0_328_1389" style="mask-type:alpha" maskUnits="userSpaceOnUse" x="0" y="0" width="26" height="26">
<path d="M12.0691 2.16669H13.9303C16.1121 2.16669 17.2821 2.46785 18.3416 3.03444C19.3884 3.58855 20.2445 4.4446 20.7986 5.49144C21.3652 6.55094 21.6663 7.72094 21.6663 9.90277V16.0973C21.6663 18.2791 21.3652 19.4491 20.7986 20.5086C20.2445 21.5554 19.3884 22.4115 18.3416 22.9656C17.2821 23.5322 16.1121 23.8334 13.9303 23.8334H12.068C9.88617 23.8334 8.71617 23.5322 7.65667 22.9656C6.60984 22.4115 5.75379 21.5554 5.19967 20.5086C4.63417 19.4491 4.33301 18.2791 4.33301 16.0973V9.90169C4.33301 7.71985 4.63417 6.54985 5.20076 5.49035C5.75533 4.44376 6.61176 3.58809 7.65884 3.03444C8.71726 2.46785 9.88726 2.16669 12.0691 2.16669ZM11.9163 6.50002V11.9167H14.083V6.50002H11.9163Z" fill="#28DAC8"/>
</mask>
<g mask="url(#mask0_328_1389)">
<rect width="26" height="26" fill="#0B9DBC"/>
</g>
</svg>
