<svg width="9" height="18" viewBox="0 0 9 18" fill="none" xmlns="http://www.w3.org/2000/svg">
<path d="M1.16677 17.1666C0.894177 17.1672 0.630001 17.0722 0.420104 16.8983C0.181512 16.7005 0.0314314 16.4159 0.0029775 16.1073C-0.0254764 15.7987 0.0700352 15.4914 0.268437 15.2533L5.4951 8.99998L0.455104 2.73498C0.259372 2.49395 0.16779 2.18485 0.200636 1.8761C0.233481 1.56735 0.388044 1.28443 0.630104 1.08998C0.874132 0.875264 1.19667 0.772088 1.52001 0.805308C1.84335 0.838528 2.13817 1.00513 2.33344 1.26498L7.96844 8.26498C8.32231 8.69548 8.32231 9.31614 7.96844 9.74664L2.1351 16.7466C1.89773 17.033 1.53804 17.189 1.16677 17.1666Z" fill="#AFFCFF"/>
</svg>
