<svg width="14" height="14" viewBox="0 0 14 14" fill="none" xmlns="http://www.w3.org/2000/svg">
<g clip-path="url(#clip0_328_1683)">
<path d="M1.30874 3.99828L6.70283 0.764283C6.79348 0.709887 6.89722 0.681152 7.00295 0.681152C7.10868 0.681152 7.21242 0.709887 7.30308 0.764283L12.6919 3.99887C12.7351 4.02477 12.7709 4.06145 12.7958 4.1053C12.8206 4.14916 12.8337 4.19871 12.8337 4.24912V11.6668C12.8337 11.8215 12.7722 11.9699 12.6628 12.0793C12.5534 12.1887 12.405 12.2501 12.2503 12.2501H1.75033C1.59562 12.2501 1.44724 12.1887 1.33785 12.0793C1.22845 11.9699 1.16699 11.8215 1.16699 11.6668V4.24853C1.16698 4.19813 1.18003 4.14858 1.20488 4.10472C1.22972 4.06086 1.2655 4.02419 1.30874 3.99828ZM2.33366 4.74437V11.0834H11.667V4.74378L7.00266 1.94378L2.33366 4.74378V4.74437ZM7.03533 7.99062L10.1247 5.3872L10.876 6.2797L7.04349 9.50962L3.12933 6.28378L3.87133 5.38312L7.03533 7.99062Z" fill="white"/>
</g>
<defs>
<clipPath id="clip0_328_1683">
<rect width="14" height="14" fill="white"/>
</clipPath>
</defs>
</svg>
