<svg width="14" height="14" viewBox="0 0 14 14" fill="none" xmlns="http://www.w3.org/2000/svg">
<path d="M10.6146 10.722H9.75489L4.14493 3.23211H5.06654L10.6146 10.722Z" fill="white"/>
<path fill-rule="evenodd" clip-rule="evenodd" d="M1.19614 0H12.8804C13.5186 0 14.0036 0.459495 14 1.09039V12.8002C14 13.4311 13.5186 14 12.8768 14H1.19614C0.557957 14 0 13.4347 0 12.8002V1.09039C0 0.459495 0.557957 0 1.19614 0ZM11.8497 2.33394H10.2985L7.74352 5.31688L5.5343 2.33394H2.33394L6.15756 7.43964L2.53368 11.6697H4.08551L6.88259 8.40541L9.32695 11.6697H12.4477L8.46159 6.28844L11.8497 2.33394Z" fill="white"/>
</svg>
