<svg width="14" height="14" viewBox="0 0 14 14" fill="none" xmlns="http://www.w3.org/2000/svg">
<path d="M9.81713 10.7361H4.37613C4.12329 10.7361 3.91421 10.67 3.74889 10.5377C3.58357 10.4055 3.50091 10.2382 3.50091 10.0359C3.50091 9.84176 3.58357 9.67652 3.74889 9.54022C3.91421 9.40392 4.12329 9.33576 4.37613 9.33576H9.81713C9.74905 9.44468 9.70043 9.55749 9.67126 9.67419C9.64208 9.79088 9.62749 9.91147 9.62749 10.0359C9.62788 10.1679 9.645 10.2903 9.67884 10.4033C9.71268 10.5163 9.75878 10.6272 9.81713 10.7361Z" fill="white"/>
<path d="M6.97264 4.80792L6.37457 6.1616H7.61447L7.0164 4.80792H6.97264Z" fill="white"/>
<path fill-rule="evenodd" clip-rule="evenodd" d="M3.91693 8.4372C3.77573 8.46054 3.63705 8.49944 3.50091 8.55389V3.9677C3.50091 3.77352 3.58357 3.60827 3.74889 3.47197C3.91421 3.33567 4.12329 3.26752 4.37613 3.26752H10.5027V8.40219H4.37613C4.2112 8.40219 4.05813 8.41386 3.91693 8.4372ZM5.80567 7.46861H5.0909L6.62255 4.20109H7.3519L8.89814 7.46861H8.18337L7.81869 6.64006H6.17035L5.80567 7.46861Z" fill="white"/>
<path fill-rule="evenodd" clip-rule="evenodd" d="M1.19614 0H12.8804C13.5186 0 14.0036 0.459495 14 1.09039V12.8002C14 13.4311 13.5186 14 12.8768 14H1.19614C0.557957 14 0 13.4347 0 12.8002V1.09039C0 0.459495 0.557957 0 1.19614 0ZM2.92442 11.1973C3.31847 11.5122 3.80237 11.6697 4.37613 11.6697H11.6697V10.7361C11.4168 10.7361 11.2078 10.67 11.0424 10.5377C10.8771 10.4055 10.7945 10.2382 10.7945 10.0359C10.7945 9.84176 10.8771 9.67652 11.0424 9.54022C11.2078 9.40392 11.4168 9.33576 11.6697 9.33576V2.33394H4.37613C3.80199 2.33394 3.31808 2.49343 2.92442 2.8124C2.53077 3.13137 2.33394 3.51647 2.33394 3.9677V10.0359C2.33355 10.4953 2.53038 10.8824 2.92442 11.1973Z" fill="white"/>
</svg>
