<svg width="14" height="14" viewBox="0 0 14 14" fill="none" xmlns="http://www.w3.org/2000/svg">
<path d="M14 8.5827V14H10.9987V8.94576C10.9987 7.67669 10.5654 6.81004 9.47867 6.81004C8.64939 6.81004 8.15674 7.39351 7.93918 7.95847C7.86017 8.16038 7.8398 8.44076 7.8398 8.72394V13.9998H4.83827C4.83827 13.9998 4.87856 5.43955 4.83827 4.55346H7.84003V5.89209C7.83398 5.90263 7.82548 5.91293 7.82011 5.92301H7.84003V5.89209C8.23889 5.24982 8.95021 4.33164 10.545 4.33164C12.5196 4.33164 14 5.68175 14 8.5827ZM1.69841 0C0.671708 0 0 0.70527 0 1.63189C0 2.53883 0.652235 3.26448 1.65901 3.26448H1.67849C2.72533 3.26448 3.37622 2.53883 3.37622 1.63189C3.3563 0.70527 2.72533 0 1.69841 0ZM0.178391 14H3.17881V4.55346H0.178391V14Z" fill="#F1F2F2"/>
</svg>
